<svg
        xmlns="http://www.w3.org/2000/svg"
        width="40"
        height="40"
        version="1.1"
        viewBox="0 0 40 40"
      >
        <path
          fill="#fff"
          stroke="none"
          strokeWidth="1"
          d="M19.878 0c-2.177 0-3.93 1.99-3.93 4.46V15.95H4.46C1.99 15.949 0 17.7 0 19.877v.246c0 2.177 1.99 3.927 4.46 3.927H15.95v11.487c0 2.472 1.752 4.463 3.93 4.463h.243c2.177 0 3.93-1.991 3.93-4.463V24.05h11.486c2.472 0 4.46-1.751 4.46-3.927v-.246c0-2.177-1.988-3.928-4.46-3.928H24.051V4.46C24.051 1.989 22.3 0 20.121 0z"
        ></path>
        <path
          fill="#fff"
          stroke="none"
          strokeWidth="1"
          d="M19.878 0c-2.177 0-3.93 1.99-3.93 4.46V15.95H4.46C1.99 15.949 0 17.7 0 19.877v.246c0 2.177 1.99 3.927 4.46 3.927H15.95v11.487c0 2.472 1.752 4.463 3.93 4.463h.243c2.177 0 3.93-1.991 3.93-4.463V24.05h11.486c2.472 0 4.46-1.751 4.46-3.927v-.246c0-2.177-1.988-3.928-4.46-3.928H24.051V4.46C24.051 1.989 22.3 0 20.121 0z"
        ></path>
      </svg>