<?xml version="1.0" encoding="UTF-8" standalone="no"?>
<!-- Created with Inkscape (http://www.inkscape.org/) -->

<svg
   width="26.472107mm"
   height="15.088481mm"
   viewBox="0 0 26.472107 15.088481"
   version="1.1"
   id="svg5"
   inkscape:version="1.1.1 (3bf5ae0d25, 2021-09-20)"
   sodipodi:docname="fleche_trajet.svg"
   xmlns:inkscape="http://www.inkscape.org/namespaces/inkscape"
   xmlns:sodipodi="http://sodipodi.sourceforge.net/DTD/sodipodi-0.dtd"
   xmlns="http://www.w3.org/2000/svg"
   xmlns:svg="http://www.w3.org/2000/svg">
  <sodipodi:namedview
     id="namedview7"
     pagecolor="#ffffff"
     bordercolor="#666666"
     borderopacity="1.0"
     inkscape:pageshadow="2"
     inkscape:pageopacity="0.0"
     inkscape:pagecheckerboard="0"
     inkscape:document-units="mm"
     showgrid="false"
     inkscape:snap-center="true"
     inkscape:snap-object-midpoints="true"
     fit-margin-top="0.5"
     fit-margin-left="0.5"
     fit-margin-bottom="0.5"
     fit-margin-right="0.5"
     inkscape:zoom="7.2407734"
     inkscape:cx="32.10983"
     inkscape:cy="38.462742"
     inkscape:window-width="1920"
     inkscape:window-height="1017"
     inkscape:window-x="-8"
     inkscape:window-y="-8"
     inkscape:window-maximized="1"
     inkscape:current-layer="layer1"
     inkscape:snap-global="true" />
  <defs
     id="defs2" />
  <g
     inkscape:label="Calque 1"
     inkscape:groupmode="layer"
     id="layer1"
     transform="translate(-90.569127,-71.906203)">
    <path
       id="path4148-5"
       style="fill:#b20032;fill-opacity:1;stroke:none;stroke-width:0.4;stroke-linecap:round;stroke-linejoin:round;stroke-miterlimit:4;stroke-dasharray:none"
       d="m 12.564453,-2.1660156 a 1.2755965,1.2755965 0 0 0 -1.275391,1.2753906 v 26.810547 l 0.0098,-0.150391 c -1.112807,9.353219 7.503883,16.91211 16.751953,16.91211 H 79.78125 v 7.125 a 1.2755965,1.2755965 0 0 0 1.853516,1.136718 L 106.77734,38.154297 a 1.2755965,1.2755965 0 0 0 0,-2.273438 L 81.634766,23.09375 a 1.2755965,1.2755965 0 0 0 -1.853516,1.136719 v 7.125 H 28.048828 c -3.016833,-3e-6 -5.433594,-2.418265 -5.433594,-5.435547 V -0.890625 a 1.2755965,1.2755965 0 0 0 -1.27539,-1.2753906 z"
       transform="matrix(0.26458333,0,0,0.26458333,88.105371,72.979295)" />
  </g>
</svg>
