<svg
        xmlns="http://www.w3.org/2000/svg"
        width="40"
        height="40"
        version="1.1"
      >
        <circle
          cx="20"
          cy="20"
          r="20"
          fill="#fff"
          stroke="none"
          strokeDashoffset="21.165"
          strokeLinejoin="bevel"
          strokeWidth="5.669"
        ></circle>
        <circle
          cx="20"
          cy="10.564"
          r="6.283"
          fill="#cfcfcf"
          fillOpacity="1"
          stroke="none"
          strokeDashoffset="21.165"
          strokeLinejoin="bevel"
          strokeWidth="5.669"
        ></circle>
        <path
          fill="#cfcfcf"
          fillOpacity="1"
          stroke="none"
          strokeDashoffset="21.165"
          strokeLinejoin="bevel"
          strokeWidth="5.669"
          d="M6.033 34.314a20 20 0 00.031.032 20 20 0 00.272.26 20 20 0 00.277.253 20 20 0 00.282.248 20 20 0 00.287.245 20 20 0 00.29.238 20 20 0 00.296.232 20 20 0 00.298.229 20 20 0 00.305.22 20 20 0 00.309.217 20 20 0 00.31.21 20 20 0 00.317.204 20 20 0 00.32.198 20 20 0 00.322.191 20 20 0 00.328.186 20 20 0 00.33.18 20 20 0 00.334.173 20 20 0 00.336.168 20 20 0 00.34.16 20 20 0 00.344.154 20 20 0 00.346.149 20 20 0 00.347.14 20 20 0 00.352.135 20 20 0 00.353.13 20 20 0 00.356.12 20 20 0 00.36.116 20 20 0 00.359.107 20 20 0 00.36.102 20 20 0 00.366.095 20 20 0 00.365.086 20 20 0 00.368.082 20 20 0 00.369.074 20 20 0 00.369.067 20 20 0 00.371.058 20 20 0 00.373.053 20 20 0 00.373.047 20 20 0 00.375.04 20 20 0 00.375.03 20 20 0 00.375.026 20 20 0 00.375.017 20 20 0 00.375.01A20 20 0 0020 40a20 20 0 00.203-.002 20 20 0 00.375-.006 20 20 0 00.377-.015 20 20 0 00.375-.022 20 20 0 00.375-.027 20 20 0 00.375-.035 20 20 0 00.373-.043 20 20 0 00.373-.051 20 20 0 00.371-.057 20 20 0 00.371-.062 20 20 0 00.37-.07 20 20 0 00.367-.079 20 20 0 00.367-.084 20 20 0 00.365-.092 20 20 0 00.363-.097 20 20 0 00.362-.106 20 20 0 00.357-.111 20 20 0 00.358-.12 20 20 0 00.355-.124 20 20 0 00.352-.131 20 20 0 00.35-.139 20 20 0 00.347-.144 20 20 0 00.344-.153 20 20 0 00.341-.158 20 20 0 00.338-.164 20 20 0 00.336-.17 20 20 0 00.332-.177 20 20 0 00.328-.182 20 20 0 00.325-.19 20 20 0 00.322-.195 20 20 0 00.316-.201 20 20 0 00.315-.209 20 20 0 00.31-.213 20 20 0 00.305-.219 20 20 0 00.303-.224 20 20 0 00.297-.23 20 20 0 00.293-.235 20 20 0 00.289-.242 20 20 0 00.283-.246 20 20 0 00.28-.252 20 20 0 00.273-.258 20 20 0 00.154-.15A13.972 13.972 0 0020 20.706 13.972 13.972 0 006.033 34.314z"
        ></path>
      </svg>