<?xml version="1.0" encoding="UTF-8" standalone="no"?>
<svg
   width="20.697012"
   height="15"
   fill="#ffffff"
   className=""
   viewBox="0 0 13.246088 9.6"
   version="1.1"
   id="svg4"
   sodipodi:docname="navbar_toggler.svg"
   inkscape:version="1.1.1 (3bf5ae0d25, 2021-09-20)"
   xmlns:inkscape="http://www.inkscape.org/namespaces/inkscape"
   xmlns:sodipodi="http://sodipodi.sourceforge.net/DTD/sodipodi-0.dtd"
   xmlns="http://www.w3.org/2000/svg"
   xmlns:svg="http://www.w3.org/2000/svg">
  <defs
     id="defs8" />
  <sodipodi:namedview
     id="namedview6"
     pagecolor="#ffffff"
     bordercolor="#666666"
     borderopacity="1.0"
     inkscape:pageshadow="2"
     inkscape:pageopacity="0.0"
     inkscape:pagecheckerboard="0"
     showgrid="false"
     inkscape:snap-center="true"
     inkscape:snap-object-midpoints="true"
     fit-margin-top="0.5"
     fit-margin-right="0.5"
     fit-margin-bottom="0.5"
     fit-margin-left="0.5"
     inkscape:zoom="16.64"
     inkscape:cx="11.147837"
     inkscape:cy="5.6790865"
     inkscape:window-width="1920"
     inkscape:window-height="1017"
     inkscape:window-x="-8"
     inkscape:window-y="-8"
     inkscape:window-maximized="1"
     inkscape:current-layer="svg4" />
  <path
     id="path2071"
     style="fill:#ff0000;stroke:none;stroke-width:0.128;stroke-linecap:round;stroke-linejoin:round;stroke-miterlimit:4;stroke-dasharray:none"
     d="m 12.286088,1.6 c 0.353462,0 0.64,-0.2865378 0.64,-0.64 0,-0.3534622 -0.286538,-0.64 -0.64,-0.64 H 0.96 c -0.3534623,0 -0.64,0.2865377 -0.64,0.64 0,0.3534622 0.2865377,0.64 0.64,0.64 z"
     sodipodi:nodetypes="csccscc" />
  <path
     id="path2361"
     style="fill:#ff0000;stroke:none;stroke-width:0.128;stroke-linecap:round;stroke-linejoin:round;stroke-miterlimit:4;stroke-dasharray:none"
     d="m 12.286088,5.44 c 0.353462,0 0.64,-0.286538 0.64,-0.64 0,-0.353462 -0.286538,-0.64 -0.64,-0.64 H 0.96 c -0.3534623,0 -0.64,0.286538 -0.64,0.64 0,0.353462 0.2865377,0.64 0.64,0.64 z"
     sodipodi:nodetypes="csccscc" />
  <path
     id="path2363"
     style="fill:#ff0000;stroke:none;stroke-width:0.128;stroke-linecap:round;stroke-linejoin:round;stroke-miterlimit:4;stroke-dasharray:none"
     d="m 12.286088,9.28 c 0.353462,0 0.64,-0.286538 0.64,-0.64 0,-0.353462 -0.286538,-0.64 -0.64,-0.64 H 0.96 C 0.6065377,8 0.32,8.286538 0.32,8.64 c 0,0.353462 0.2865377,0.64 0.64,0.64 z"
     sodipodi:nodetypes="csccscc" />
</svg>
