<?xml version="1.0" encoding="UTF-8" standalone="no"?>
<!-- Created with Inkscape (http://www.inkscape.org/) -->

<svg
   width="7.7670288mm"
   height="30.524298mm"
   viewBox="0 0 7.7670288 30.524299"
   version="1.1"
   id="svg5"
   inkscape:version="1.1.1 (3bf5ae0d25, 2021-09-20)"
   sodipodi:docname="trajet_separator.svg"
   xmlns:inkscape="http://www.inkscape.org/namespaces/inkscape"
   xmlns:sodipodi="http://sodipodi.sourceforge.net/DTD/sodipodi-0.dtd"
   xmlns="http://www.w3.org/2000/svg"
   xmlns:svg="http://www.w3.org/2000/svg">
  <sodipodi:namedview
     id="namedview7"
     pagecolor="#ffffff"
     bordercolor="#666666"
     borderopacity="1.0"
     inkscape:pageshadow="2"
     inkscape:pageopacity="0.0"
     inkscape:pagecheckerboard="0"
     inkscape:document-units="mm"
     showgrid="false"
     inkscape:snap-object-midpoints="true"
     inkscape:snap-center="true"
     fit-margin-top="0.5"
     fit-margin-left="0.5"
     fit-margin-right="0.5"
     fit-margin-bottom="0.5"
     inkscape:zoom="5.9295175"
     inkscape:cx="7.3361788"
     inkscape:cy="53.208377"
     inkscape:window-width="1920"
     inkscape:window-height="1017"
     inkscape:window-x="-8"
     inkscape:window-y="-8"
     inkscape:window-maximized="1"
     inkscape:current-layer="g1336" />
  <defs
     id="defs2" />
  <g
     inkscape:label="Calque 1"
     inkscape:groupmode="layer"
     id="layer1"
     transform="translate(-35.874162,-34.936639)">
    <g
       id="g1336">
      <path
         id="path7684"
         style="fill:#b20032;fill-opacity:1;stroke:none;stroke-width:3.77951;stroke-linecap:round;stroke-linejoin:round;stroke-miterlimit:4;stroke-dasharray:none"
         d="M 14.677734,1.890625 A 12.7889,12.7889 0 0 0 1.890625,14.677734 12.7889,12.7889 0 0 0 9.9570312,26.5625 V 88.806641 A 12.7889,12.7889 0 0 0 1.890625,100.68945 12.7889,12.7889 0 0 0 14.677734,113.47852 12.7889,12.7889 0 0 0 27.466797,100.68945 12.7889,12.7889 0 0 0 19.400391,88.804688 V 26.5625 A 12.7889,12.7889 0 0 0 27.466797,14.677734 12.7889,12.7889 0 0 0 14.677734,1.890625 Z"
         transform="matrix(0.26458333,0,0,0.26458333,35.873934,34.936411)" />
    </g>
  </g>
</svg>
